<?xml version="1.0" standalone="no"?>
<!DOCTYPE svg PUBLIC "-//W3C//DTD SVG 20010904//EN"
 "http://www.w3.org/TR/2001/REC-SVG-20010904/DTD/svg10.dtd">
<svg version="1.0" xmlns="http://www.w3.org/2000/svg"
 width="500.000000pt" height="500.000000pt" viewBox="0 0 500.000000 500.000000"
 preserveAspectRatio="xMidYMid meet">
<metadata>
Created by potrace 1.11, written by Peter Selinger 2001-2013
</metadata>
<g transform="translate(0.000000,500.000000) scale(0.100000,-0.100000)"
fill="#000000" stroke="none">
<path d="M2187 4862 c-4 -6 -14 -9 -22 -5 -8 3 -15 0 -15 -6 0 -6 -9 -11 -20
-11 -11 0 -20 -5 -20 -11 0 -5 -4 -7 -10 -4 -5 3 -10 2 -10 -4 0 -5 -6 -16
-13 -23 -25 -25 -150 -183 -154 -194 -2 -7 -24 -17 -48 -23 -24 -6 -56 -16
-72 -22 -15 -7 -35 -13 -43 -15 -8 -2 -44 -15 -79 -29 -36 -14 -71 -25 -78
-25 -7 0 -13 -4 -13 -8 0 -4 -20 -16 -44 -26 -24 -10 -55 -24 -68 -32 -13 -7
-34 -19 -48 -26 -14 -6 -37 -20 -51 -30 -14 -9 -29 -15 -33 -11 -3 3 -6 2 -6
-4 0 -6 -16 -18 -35 -27 -19 -9 -35 -21 -35 -26 0 -6 -5 -10 -12 -10 -14 0
-160 -108 -171 -127 -4 -7 -12 -13 -16 -13 -5 0 -35 -25 -67 -55 -33 -30 -63
-55 -67 -55 -5 0 -5 -4 -2 -10 3 -5 -1 -10 -9 -10 -9 0 -16 -3 -16 -7 0 -5
-25 -35 -56 -68 -30 -33 -65 -73 -77 -89 -12 -16 -30 -37 -39 -47 -10 -11 -18
-21 -18 -24 0 -2 -18 -28 -40 -57 -22 -29 -40 -59 -40 -65 0 -7 -4 -13 -8 -13
-5 0 -17 -17 -28 -37 -10 -21 -22 -40 -25 -43 -12 -11 -59 -103 -59 -116 0 -8
-4 -14 -9 -14 -8 0 -19 -25 -17 -40 0 -3 -7 -18 -16 -35 -45 -83 -133 -338
-123 -355 3 -5 1 -11 -4 -14 -8 -5 -14 -31 -27 -111 -4 -23 -13 -78 -20 -115
-25 -146 -23 -447 6 -625 6 -33 12 -73 15 -90 6 -37 13 -70 15 -70 1 0 3 -9 5
-19 7 -37 47 -181 53 -191 4 -5 7 -14 8 -20 5 -26 48 -131 56 -136 5 -3 9 -8
7 -10 -5 -9 26 -79 35 -79 5 0 7 -2 4 -5 -3 -3 6 -28 21 -54 14 -27 39 -73 55
-103 16 -29 34 -56 40 -60 6 -4 7 -8 3 -8 -5 0 -2 -7 5 -15 30 -33 38 -45 38
-55 0 -5 4 -10 9 -10 5 0 12 -8 15 -18 3 -9 19 -32 35 -50 17 -17 28 -32 25
-32 -3 0 1 -6 8 -14 7 -7 42 -46 78 -86 36 -41 89 -96 119 -124 29 -28 67 -63
83 -79 16 -15 33 -27 38 -27 6 0 10 -4 10 -8 0 -5 21 -24 48 -43 26 -18 56
-41 66 -51 11 -10 25 -18 32 -18 7 0 14 -3 16 -7 3 -8 64 -53 72 -53 2 0 33
-17 67 -38 75 -44 207 -109 259 -127 3 -1 14 -5 25 -10 78 -32 118 -44 126
-40 5 4 9 2 9 -3 0 -9 65 -28 83 -24 4 1 7 -2 7 -6 0 -4 8 -8 18 -9 9 0 28 -4
42 -8 14 -4 34 -8 45 -10 11 -3 29 -6 40 -9 11 -2 22 -5 26 -5 4 -1 90 -103
134 -159 26 -34 75 -83 75 -75 0 4 4 2 9 -6 5 -8 29 -14 65 -15 31 0 56 -5 56
-9 0 -5 5 -5 10 -2 16 10 190 12 190 2 0 -4 5 -5 10 -2 16 10 110 12 110 2 0
-4 5 -5 10 -2 17 10 110 12 110 2 0 -5 6 -4 14 2 7 6 21 9 30 5 9 -3 16 -1 16
6 0 6 5 8 10 5 11 -7 86 65 130 124 14 18 30 38 35 44 6 7 26 32 45 57 19 25
37 47 40 50 3 3 16 18 28 34 13 17 30 31 39 32 9 2 19 6 22 11 3 4 15 10 26
11 11 2 24 8 29 13 6 5 18 9 28 9 10 0 18 5 18 11 0 5 4 8 9 4 5 -3 12 -1 16
5 4 6 11 8 16 5 5 -4 9 -3 9 2 0 4 25 19 55 33 30 14 55 29 55 33 0 5 4 6 9 2
5 -3 15 0 23 7 7 7 27 20 43 28 17 8 39 23 49 33 11 9 26 17 33 17 7 0 13 3
13 8 1 4 25 23 55 42 30 19 55 38 55 43 0 4 7 7 15 7 8 0 15 4 15 8 0 4 21 24
48 44 68 52 215 200 297 299 78 95 176 243 237 359 42 81 108 224 113 245 1 6
5 17 8 25 3 8 18 53 33 100 14 47 28 92 31 100 3 8 7 22 8 30 1 8 10 53 18
100 9 47 19 98 21 115 27 155 26 484 -1 630 -3 17 -7 39 -8 50 -16 113 -88
370 -122 435 -7 14 -13 29 -13 33 0 16 -130 269 -162 315 -18 26 -33 49 -33
52 0 8 -140 191 -180 235 -65 73 -151 159 -194 195 -23 19 -60 52 -83 73 -23
20 -45 37 -49 37 -6 0 -40 26 -73 57 -14 13 -17 14 -12 3 7 -13 6 -13 -6 0
-19 21 -128 92 -128 83 0 -5 -4 -3 -8 3 -10 14 -101 64 -117 64 -8 0 -15 3
-17 8 -4 9 -209 100 -215 95 -2 -1 -23 6 -48 17 -25 11 -45 17 -45 13 0 -3 -7
0 -15 7 -9 7 -18 10 -22 7 -3 -3 -18 0 -33 8 -15 8 -30 12 -33 9 -8 -8 -49 16
-68 40 -9 12 -26 31 -36 43 -11 12 -28 34 -39 49 -62 86 -147 145 -187 131 -6
-2 -20 0 -29 5 -10 5 -18 5 -18 1 0 -4 -23 -8 -50 -8 -28 0 -50 4 -50 8 0 5
-5 5 -11 1 -14 -8 -118 -9 -126 0 -3 3 -12 1 -20 -5 -10 -9 -13 -8 -13 0 0 7
-5 9 -12 5 -16 -10 -68 -11 -68 -1 0 5 -5 5 -11 1 -18 -11 -89 -10 -92 1 -2 5
-7 4 -10 -3z"/>
</g>
</svg>
